<?xml version="1.0" standalone="no"?>
<!DOCTYPE svg PUBLIC "-//W3C//DTD SVG 20010904//EN"
 "http://www.w3.org/TR/2001/REC-SVG-20010904/DTD/svg10.dtd">
<svg version="1.0" xmlns="http://www.w3.org/2000/svg"
 width="1600.000000pt" height="1600.000000pt" viewBox="0 0 1600.000000 1600.000000"
 preserveAspectRatio="xMidYMid meet">
<metadata>
Created by potrace 1.16, written by Peter Selinger 2001-2019
</metadata>
<g transform="translate(0.000000,1600.000000) scale(0.100000,-0.100000)"
fill="#000000" stroke="none">
<path d="M7690 15972 l0 -28 -177 -12 c-1776 -122 -3389 -790 -4738 -1961
-275 -238 -723 -707 -971 -1016 -752 -935 -1300 -2071 -1559 -3235 -99 -448
-172 -978 -182 -1342 l-6 -188 -28 0 -29 0 0 -190 0 -190 29 0 28 0 6 -187 c8
-275 56 -689 122 -1048 388 -2115 1640 -4001 3450 -5200 761 -504 1588 -869
2470 -1089 493 -123 1213 -226 1588 -226 l127 0 0 -30 0 -30 180 0 180 0 0 30
0 30 128 0 c293 0 866 71 1297 160 2409 499 4487 2129 5558 4360 362 754 587
1498 707 2340 43 302 61 492 67 703 l6 187 28 0 29 0 0 190 0 190 -29 0 -28 0
-6 188 c-17 584 -165 1400 -367 2027 -789 2442 -2708 4365 -5150 5160 -650
211 -1437 353 -2072 372 l-208 6 0 29 0 28 -225 0 -225 0 0 -28z m715 -892
c1729 -92 3311 -785 4554 -1995 1183 -1152 1900 -2623 2091 -4290 44 -387 44
-1197 0 -1590 -210 -1860 -1087 -3483 -2527 -4682 -1170 -974 -2645 -1541
-4173 -1604 -277 -12 -720 -6 -945 12 -917 73 -1869 343 -2671 759 -653 338
-1207 744 -1735 1270 -311 310 -523 556 -759 880 -341 468 -661 1058 -863
1590 -237 626 -387 1291 -448 1985 -16 186 -16 984 0 1170 148 1691 825 3183
1981 4369 1275 1307 2948 2055 4765 2129 182 8 559 6 730 -3z"/>
<path d="M6384 13380 c-45 -10 -272 -136 -629 -348 -277 -165 -296 -180 -342
-267 -46 -87 -40 -129 44 -281 102 -186 806 -1406 1261 -2188 86 -147 171
-282 187 -298 41 -41 148 -91 199 -92 35 -1 77 19 286 135 135 75 334 190 444
255 223 133 252 161 286 272 l20 65 -28 61 c-59 126 -783 1392 -1240 2171
-238 405 -276 456 -367 495 -54 24 -84 29 -121 20z"/>
<path d="M4974 12288 c-281 -168 -428 -279 -589 -443 -277 -281 -389 -534
-425 -955 -30 -338 43 -940 176 -1475 480 -1921 1747 -4149 3169 -5570 623
-624 1251 -1062 1690 -1180 142 -38 241 -48 404 -42 277 11 516 90 916 303
133 70 165 92 162 106 -5 17 -573 1014 -1077 1888 -293 509 -359 620 -366 620
-3 0 -43 -13 -90 -30 -144 -51 -236 -63 -429 -57 -221 7 -322 32 -530 131
-216 103 -402 237 -608 436 -607 586 -1089 1494 -1227 2310 -45 267 -51 598
-15 810 46 268 161 489 325 628 44 37 80 71 80 76 0 21 -379 689 -983 1731
-220 380 -411 709 -424 732 -14 24 -28 45 -33 48 -4 3 -61 -27 -126 -67z"/>
<path d="M10260 6602 c-126 -51 -821 -463 -881 -523 -49 -48 -89 -134 -89
-191 0 -38 13 -63 390 -723 695 -1217 1100 -1907 1144 -1948 53 -51 105 -71
176 -71 76 0 88 5 405 187 539 309 574 333 615 444 24 63 25 101 6 147 -24 59
-510 905 -1014 1766 -501 858 -497 851 -584 896 -65 33 -114 38 -168 16z"/>
</g>
</svg>
