<?xml version="1.0" standalone="no"?>
<!DOCTYPE svg PUBLIC "-//W3C//DTD SVG 20010904//EN"
 "http://www.w3.org/TR/2001/REC-SVG-20010904/DTD/svg10.dtd">
<svg version="1.0" xmlns="http://www.w3.org/2000/svg"
 width="640.000000pt" height="640.000000pt" viewBox="0 0 640.000000 640.000000"
 preserveAspectRatio="xMidYMid meet">
<metadata>
Created by potrace 1.16, written by Peter Selinger 2001-2019
</metadata>
<g transform="translate(0.000000,640.000000) scale(0.100000,-0.100000)"
fill="#000000" stroke="none">
<path d="M3040 6371 c0 -28 -1 -28 -69 -35 -99 -9 -259 -42 -393 -81 -466
-137 -889 -423 -1199 -810 -265 -330 -452 -778 -500 -1194 -17 -156 -6 -514
21 -666 158 -884 663 -1814 1507 -2775 263 -299 654 -686 738 -731 37 -20 45
-29 45 -51 0 -16 5 -28 10 -28 6 0 10 12 10 28 0 22 8 31 45 51 83 44 457 413
721 712 770 870 1284 1760 1474 2554 56 233 71 347 77 572 9 326 -19 517 -115
808 -54 164 -172 408 -267 550 -182 272 -432 520 -705 698 -332 216 -792 367
-1117 367 l-63 0 0 30 0 30 -110 0 -110 0 0 -29z m396 -382 c233 -22 434 -79
643 -179 510 -247 879 -685 1037 -1233 48 -167 64 -308 64 -565 0 -289 -19
-450 -81 -697 -159 -634 -572 -1371 -1184 -2110 -100 -120 -215 -249 -483
-537 l-174 -188 -58 0 -58 0 -174 188 c-276 298 -393 428 -508 567 -587 713
-997 1448 -1160 2080 -60 234 -72 329 -77 611 -7 360 10 505 87 734 240 723
879 1245 1630 1329 110 12 371 13 496 0z"/>
<path d="M3095 5068 c-69 -10 -218 -54 -290 -86 -404 -178 -675 -600 -652
-1015 25 -441 338 -833 775 -971 231 -72 473 -50 704 64 117 58 184 106 286
205 198 190 314 438 329 702 15 271 -98 558 -306 776 -131 137 -344 260 -524
302 -84 19 -260 32 -322 23z m222 -348 c155 -16 268 -74 399 -205 65 -65 90
-98 122 -166 51 -105 62 -167 62 -338 0 -212 -29 -313 -125 -440 -139 -183
-324 -270 -575 -270 -251 0 -436 87 -575 270 -104 138 -129 237 -122 479 5
179 13 217 69 323 40 77 181 221 258 264 138 78 290 104 487 83z"/>
</g>
</svg>
