<?xml version="1.0" standalone="no"?>
<!DOCTYPE svg PUBLIC "-//W3C//DTD SVG 20010904//EN"
 "http://www.w3.org/TR/2001/REC-SVG-20010904/DTD/svg10.dtd">
<svg version="1.0" xmlns="http://www.w3.org/2000/svg"
 width="1050.000000pt" height="1074.000000pt" viewBox="0 0 1050.000000 1074.000000"
 preserveAspectRatio="xMidYMid meet">
<metadata>
Created by potrace 1.16, written by Peter Selinger 2001-2019
</metadata>
<g transform="translate(0.000000,1074.000000) scale(0.100000,-0.100000)"
fill="#000000" stroke="none">
<path d="M995 9220 c-363 -5 -383 -7 -445 -29 -194 -68 -346 -204 -436 -389
-23 -47 -39 -98 -45 -140 -4 -37 -8 -262 -9 -499 l0 -433 -30 0 -30 0 0 -2355
0 -2355 30 0 30 0 0 -432 c0 -238 5 -462 10 -498 6 -44 24 -95 57 -160 78
-157 247 -310 402 -368 98 -36 269 -37 4716 -37 4477 0 4615 1 4725 39 176 60
394 282 446 453 9 26 18 108 21 180 l6 133 28 0 29 0 0 3045 0 3045 -30 0 -30
0 0 88 c-1 144 -15 217 -62 312 -35 70 -60 102 -143 185 -116 116 -217 180
-311 196 -32 5 -207 14 -389 19 -352 10 -7886 10 -8540 0z m8053 -517 l292 -6
0 -57 0 -56 -472 -404 c-260 -223 -873 -749 -1363 -1170 -1247 -1072 -2083
-1790 -2130 -1828 -34 -27 -47 -32 -95 -32 -34 0 -68 7 -87 18 -18 9 -96 73
-175 142 -204 179 -673 583 -2243 1930 -759 651 -1422 1220 -1472 1264 l-93
80 0 58 0 58 193 3 c411 6 7368 7 7645 0z m-8167 -701 c123 -103 789 -659
1479 -1237 1954 -1634 2111 -1766 2348 -1974 181 -159 240 -203 327 -246 125
-62 270 -83 375 -55 107 28 182 78 350 230 52 48 208 183 345 301 227 195
3278 2774 3610 3052 139 116 140 117 193 117 l52 0 0 -2098 c0 -1154 -3 -2457
-7 -2895 l-6 -797 -52 0 -52 0 -104 108 c-58 59 -545 580 -1084 1157 -1089
1167 -1331 1424 -1381 1461 -18 14 -59 34 -91 44 -52 16 -62 16 -108 3 -132
-39 -236 -153 -260 -286 -18 -98 3 -123 1531 -1814 l834 -922 0 -54 0 -54
-817 -6 c-1058 -9 -5059 -9 -6126 0 l-827 6 0 51 0 51 762 845 c1298 1441
1564 1741 1580 1780 5 14 14 50 19 80 8 51 7 60 -26 127 -79 168 -238 244
-372 178 -71 -36 -319 -290 -1507 -1545 -549 -580 -1048 -1106 -1109 -1167
l-110 -113 -49 0 -48 0 0 2930 0 2930 53 0 53 0 225 -188z"/>
</g>
</svg>
