<?xml version="1.0" standalone="no"?>
<!DOCTYPE svg PUBLIC "-//W3C//DTD SVG 20010904//EN"
 "http://www.w3.org/TR/2001/REC-SVG-20010904/DTD/svg10.dtd">
<svg version="1.0" xmlns="http://www.w3.org/2000/svg"
 width="553.000000pt" height="205.000000pt" viewBox="0 0 553.000000 205.000000"
 preserveAspectRatio="xMidYMid meet">
<metadata>
Created by potrace 1.16, written by Peter Selinger 2001-2019
</metadata>
<g transform="translate(0.000000,205.000000) scale(0.100000,-0.100000)"
fill="#000000" stroke="none">
<path d="M3175 1926 c-87 -20 -109 -31 -155 -72 -54 -49 -84 -107 -76 -148 21
-103 119 -166 354 -227 49 -13 96 -32 113 -46 28 -24 29 -29 29 -104 0 -66 -3
-82 -20 -99 -31 -31 -64 -40 -146 -40 -113 0 -172 34 -191 110 l-9 35 -75 -4
c-41 -2 -76 -5 -77 -6 -2 -2 9 -27 24 -55 61 -112 151 -155 324 -155 94 0 112
3 166 29 34 15 77 43 95 62 18 19 39 34 46 34 10 0 13 22 13 84 0 46 3 92 6
101 5 11 -10 32 -48 69 -63 61 -114 83 -286 126 -156 39 -162 44 -162 128 0
59 3 72 23 90 21 19 35 22 118 22 111 0 149 -17 170 -75 12 -33 16 -36 43 -31
15 3 48 6 72 6 l44 0 -20 40 c-52 101 -226 160 -375 126z"/>
<path d="M110 1521 l0 -401 95 0 95 0 0 180 0 180 79 0 c69 0 84 -3 105 -22
14 -13 64 -93 110 -178 l84 -155 86 -3 c47 -1 86 0 86 4 0 3 -21 46 -46 94
-48 93 -111 175 -144 185 -17 5 -20 15 -20 58 l0 52 56 29 c95 50 142 135 119
212 -19 65 -50 100 -113 131 l-57 28 -267 3 -268 3 0 -400z m511 280 c15 -18
19 -39 19 -101 0 -124 -25 -139 -227 -140 l-113 0 0 136 0 135 151 -3 c145 -3
152 -4 170 -27z"/>
<path d="M347 869 c-110 -16 -196 -71 -238 -151 -26 -51 -24 -76 10 -130 47
-74 126 -118 286 -158 170 -43 185 -55 185 -157 0 -85 -9 -107 -50 -128 -38
-20 -190 -21 -228 -1 -40 21 -69 56 -79 96 l-9 35 -75 -4 c-41 -1 -75 -4 -77
-6 -8 -7 43 -93 76 -128 35 -36 121 -77 162 -77 16 0 20 -7 20 -30 l0 -30 85
0 85 0 0 28 c0 25 5 29 61 45 51 15 72 29 121 78 56 55 62 59 107 59 41 0 50
-4 70 -30 32 -44 118 -98 179 -112 47 -12 52 -15 52 -40 l0 -28 75 0 75 0 0
28 c0 24 5 29 43 39 65 18 138 72 179 133 21 30 36 59 35 64 -2 7 -119 49
-122 43 -1 -1 -12 -23 -24 -49 -36 -75 -67 -92 -181 -96 -84 -3 -100 -1 -139
20 -71 37 -85 75 -90 243 -4 160 8 231 47 276 38 46 79 59 178 59 101 0 144
-16 175 -66 11 -19 27 -34 35 -34 28 0 104 22 104 30 0 5 -18 31 -40 58 -69
88 -212 140 -335 120 -99 -15 -164 -46 -229 -109 -35 -35 -69 -59 -82 -59 -20
0 -21 -6 -27 -100 -3 -55 -9 -105 -12 -110 -12 -19 -107 -10 -171 15 -34 14
-111 37 -171 51 -110 27 -142 39 -155 58 -4 6 -8 41 -8 78 0 60 3 69 26 87 23
18 41 21 116 21 108 0 139 -13 165 -71 18 -41 18 -41 62 -35 24 3 57 6 73 6
l29 0 -22 40 c-55 98 -198 150 -352 129z"/>
<path d="M3110 869 c-108 -18 -223 -89 -270 -165 -20 -32 -25 -34 -76 -34
l-54 0 0 95 0 95 -95 0 -95 0 0 -155 0 -155 -195 0 -195 0 0 155 0 155 -95 0
-95 0 0 -400 0 -400 95 0 95 0 0 180 0 180 195 0 195 0 0 -180 0 -180 95 0 95
0 0 100 0 100 53 0 c50 -1 53 -2 77 -42 45 -73 179 -158 250 -158 16 0 20 -7
20 -30 l0 -30 70 0 70 0 0 30 c0 23 4 30 20 30 46 0 133 44 188 95 172 159
176 444 9 607 -88 85 -231 128 -357 107z m172 -119 c52 -15 103 -76 117 -139
14 -66 14 -210 0 -287 -22 -120 -67 -156 -202 -162 -139 -7 -210 32 -238 131
-16 54 -16 280 -1 333 27 93 91 133 212 134 41 0 91 -5 112 -10z"/>
<path d="M4411 844 c-73 -33 -151 -52 -243 -60 -43 -4 -78 -11 -78 -15 0 -5
-15 -29 -34 -54 -119 -155 -108 -387 24 -538 44 -50 140 -104 202 -113 34 -6
38 -10 38 -35 l0 -29 70 0 70 0 0 29 c0 24 5 29 33 34 83 13 203 98 242 171
19 34 22 36 72 36 l53 0 0 -105 0 -105 335 0 335 0 0 65 0 65 -240 0 -240 0 0
335 0 335 -95 0 -95 0 0 -100 0 -100 -55 0 c-49 0 -56 3 -69 28 -17 34 -102
114 -142 135 -16 8 -52 21 -79 30 -48 14 -52 13 -104 -9z m81 -94 c43 -12 90
-63 109 -117 18 -51 18 -293 0 -346 -18 -54 -66 -105 -109 -117 -48 -13 -166
-13 -214 0 -43 12 -90 63 -109 117 -19 51 -19 294 -1 346 18 49 58 96 97 113
36 16 175 18 227 4z"/>
</g>
</svg>
