<?xml version="1.0" standalone="no"?>
<!DOCTYPE svg PUBLIC "-//W3C//DTD SVG 20010904//EN"
 "http://www.w3.org/TR/2001/REC-SVG-20010904/DTD/svg10.dtd">
<svg version="1.0" xmlns="http://www.w3.org/2000/svg"
 width="3412.000000pt" height="2700.000000pt" viewBox="0 0 3412.000000 2700.000000"
 preserveAspectRatio="xMidYMid meet">

<g transform="translate(0.000000,2700.000000) scale(0.100000,-0.100000)"
fill="#000000" stroke="none">
<path d="M12200 26293 c-141 -25 -800 -154 -960 -188 -1557 -333 -3098 -804
-4575 -1400 -456 -184 -1158 -489 -1223 -531 -45 -29 -526 -773 -889 -1374
-754 -1250 -1447 -2596 -1998 -3885 -1290 -3018 -2023 -6167 -2195 -9430 -48
-915 -52 -2025 -10 -2905 32 -662 93 -1480 119 -1576 9 -35 169 -158 577 -444
1203 -841 2267 -1480 3509 -2104 1312 -660 2451 -1132 3810 -1579 176 -58 368
-119 427 -137 147 -43 154 -41 256 98 184 250 642 935 824 1232 291 475 729
1258 809 1449 55 130 58 127 -436 329 -598 244 -1273 567 -1874 896 -262 144
-331 187 -370 232 -68 77 -56 90 459 485 96 74 108 81 142 76 40 -5 132 -42
508 -204 2035 -877 4140 -1412 6305 -1603 945 -83 2012 -92 3005 -25 2285 155
4507 711 6715 1680 363 159 352 155 390 155 36 0 79 -30 366 -255 233 -182
249 -199 249 -253 0 -34 -6 -49 -27 -71 -63 -63 -544 -326 -1078 -591 -482
-239 -645 -312 -1305 -584 -326 -135 -329 -138 -297 -238 47 -149 613 -1144
978 -1721 286 -451 687 -1036 747 -1088 30 -27 40 -30 73 -25 101 16 824 254
1344 443 2206 799 4256 1854 6226 3205 500 343 828 581 855 623 9 14 21 74 29
147 26 230 76 920 106 1463 16 301 24 2112 10 2477 -12 315 -40 791 -66 1128
-324 4152 -1529 8028 -3663 11775 -373 654 -828 1390 -1272 2055 l-98 146
-188 84 c-985 437 -1780 746 -2724 1058 -1175 389 -2367 696 -3555 917 -365
67 -422 74 -453 49 -66 -55 -510 -939 -793 -1578 -46 -103 -89 -191 -97 -194
-8 -2 -132 12 -275 32 -786 109 -1543 179 -2397 221 -358 18 -1799 21 -2235 5
-700 -25 -1525 -100 -2389 -216 -313 -43 -341 -45 -352 -30 -6 9 -69 142 -140
294 -250 542 -531 1102 -678 1351 -75 128 -106 145 -226 124z m-429 -10693
c472 -48 915 -209 1320 -481 294 -197 596 -500 812 -814 205 -298 385 -680
481 -1017 112 -397 150 -772 128 -1260 -14 -293 -35 -443 -102 -713 -156 -633
-457 -1172 -900 -1615 -396 -397 -850 -655 -1365 -778 -223 -53 -341 -66 -620
-66 -327 1 -486 21 -745 94 -1031 292 -1881 1226 -2164 2378 -81 328 -111 615
-103 987 8 370 47 641 142 972 118 411 357 874 626 1214 170 215 456 477 694
636 386 258 859 428 1300 466 94 8 401 6 496 -3z m11269 -15 c405 -63 820
-224 1160 -450 293 -195 617 -517 834 -828 257 -370 442 -801 540 -1262 67
-312 71 -351 71 -775 0 -407 -6 -488 -51 -725 -112 -584 -324 -1072 -662
-1525 -104 -139 -424 -464 -562 -570 -450 -347 -960 -548 -1491 -591 -173 -14
-483 -6 -624 16 -415 64 -818 227 -1175 473 -359 247 -708 621 -920 987 -69
119 -219 418 -263 525 -113 274 -191 584 -234 930 -21 173 -24 669 -4 850 102
958 578 1836 1296 2390 417 322 917 517 1470 574 97 10 514 -3 615 -19z"/>
</g>
</svg>
